<svg id="Layer_1" data-name="Layer 1" xmlns="http://www.w3.org/2000/svg" xmlns:xlink="http://www.w3.org/1999/xlink" viewBox="0 0 395.83 364.58"><defs><style>.cls-1{fill:url(#linear-gradient);}.cls-2{fill:url(#linear-gradient-2);}.cls-3{fill:url(#linear-gradient-3);}.cls-4{fill:#64717c;}.cls-5{fill:url(#radial-gradient);}.cls-6{isolation:isolate;opacity:0.05;}.cls-7{fill:#fff;}</style><linearGradient id="linear-gradient" x1="-121.36" y1="-303.43" x2="-100.98" y2="-286.23" gradientTransform="translate(1403.08 3400) scale(10.42)" gradientUnits="userSpaceOnUse"><stop offset="0" stop-color="#a1aab3"/><stop offset="1" stop-color="#8f979e"/></linearGradient><linearGradient id="linear-gradient-2" x1="-110.7" y1="-291.41" x2="-110.7" y2="-286.39" gradientTransform="translate(1351 3327.08) scale(10.42)" gradientUnits="userSpaceOnUse"><stop offset="0" stop-color="#484b4f"/><stop offset="0.04" stop-color="#4a4e52"/><stop offset="0.39" stop-color="#5c6369"/><stop offset="0.72" stop-color="#667077"/><stop offset="1" stop-color="#6a747c"/></linearGradient><linearGradient id="linear-gradient-3" x1="-110.7" y1="-286.4" x2="-110.7" y2="-284.4" xlink:href="#linear-gradient"/><radialGradient id="radial-gradient" cx="-91.74" cy="-295.21" r="34.55" gradientTransform="translate(1403.08 3400) scale(10.42)" gradientUnits="userSpaceOnUse"><stop offset="0" stop-color="#9e6fd9"/><stop offset="0.17" stop-color="#aa73c7"/><stop offset="0.52" stop-color="#ca7f97"/><stop offset="1" stop-color="#fc914d"/></radialGradient></defs><path class="cls-1" d="M427.08,364.58H72.92a20.83,20.83,0,0,1-20.84-20.83V312.5H447.92v31.25A20.83,20.83,0,0,1,427.08,364.58Z" transform="translate(-52.08 -72.92)"/><polygon class="cls-2" points="250 343.75 145.83 343.75 156.25 291.67 239.58 291.67 250 343.75"/><path class="cls-3" d="M338.54,416.67H161.46a5.21,5.21,0,0,0-5.21,5.21v10.41a5.21,5.21,0,0,0,5.21,5.21H338.54a5.21,5.21,0,0,0,5.21-5.21V421.88A5.21,5.21,0,0,0,338.54,416.67Z" transform="translate(-52.08 -72.92)"/><circle class="cls-4" cx="197.92" cy="270.83" r="10.42"/><path class="cls-5" d="M427.08,72.92H72.92A20.83,20.83,0,0,0,52.08,93.75V322.92H447.92V93.75A20.83,20.83,0,0,0,427.08,72.92Z" transform="translate(-52.08 -72.92)"/><path class="cls-6" d="M271.09,270.83a29.36,29.36,0,0,1-12.82-3.07,15.61,15.61,0,0,0-7.47-1.84,15.19,15.19,0,0,0-7.6,1.83,28.52,28.52,0,0,1-12.57,3.08c-20.69,0-45.85-34.68-45.85-62.9,0-34.05,24.55-49.38,42-49.38a35.2,35.2,0,0,1,10.36,1.65,33.26,33.26,0,0,1,8.77-16,41.72,41.72,0,0,1,26.19-12.23l9.31-.54,1.57,9.15A29.41,29.41,0,0,1,279.81,159c10.4,2.47,22.95,10,28.51,19.41l6.9,11.68-13.08,3.64c-6.08,1.7-9.39,6-9.33,12,.07,5.17,2.93,11.43,9.1,13l12,3-5.07,11.3a94.12,94.12,0,0,1-8.57,15.82c-4.63,7.08-14.3,21.83-29.13,21.93h-.05Z" transform="translate(-52.08 -72.92)"/><path class="cls-6" d="M230.4,265.63c-16.3,0-40.42-30.4-40.42-57.7,0-30.46,21.51-44.17,36.78-44.17,5.84,0,10.69,2,15,3.68l.08,0c-.6-6.64,2.22-13.84,7.83-19.71s14.82-10.18,22.74-10.63l4.64-.28.79,4.59c1.26,7.35-1.44,15.38-7.42,22h0c.86-.07,1.77-.12,2.7-.12,9.39,0,24.86,7.74,30.73,17.71l3.45,5.85-6.54,1.82c-8.32,2.31-13.23,8.69-13.14,17.06.09,7.1,4.19,15.75,13,18l6,1.52L304.08,231A88.48,88.48,0,0,1,295.91,246c-4.47,6.81-12.8,19.5-24.83,19.58A24.33,24.33,0,0,1,260.36,263,21.54,21.54,0,0,0,241,263a23.3,23.3,0,0,1-10.43,2.61h-.2Z" transform="translate(-52.08 -72.92)"/><path class="cls-7" d="M272.69,142.33a31.53,31.53,0,0,0-19.27,9c-4.19,4.39-7.51,10.92-6.16,17.23,7.41.2,14.83-3.69,19.27-8.6C270.69,155.38,273.83,148.94,272.69,142.33Zm.4,26.23c-10.67,0-15.14,6.57-22.55,6.57-7.61,0-14.57-6.16-23.78-6.16-12.53,0-31.58,11.6-31.58,39,0,24.88,22.54,52.49,35.26,52.49,7.73.08,9.6-4.87,20.1-4.92s12.76,5,20.51,4.92c8.72-.07,15.53-9.64,20.51-17.23a84.93,84.93,0,0,0,7.78-14.37c-20.51-5.19-24.59-38.27,0-45.11C294.69,175.82,281.16,168.56,273.09,168.56Z" transform="translate(-52.08 -72.92)"/></svg>