<svg id="Layer_1" data-name="Layer 1" xmlns="http://www.w3.org/2000/svg" xmlns:xlink="http://www.w3.org/1999/xlink" viewBox="0 0 479.17 354.17"><defs><style>.cls-1{fill:url(#linear-gradient);}.cls-2{fill:url(#linear-gradient-2);}.cls-3{fill:url(#radial-gradient);}.cls-4{fill:url(#linear-gradient-3);}.cls-5,.cls-6{isolation:isolate;}.cls-5{opacity:0.05;}.cls-6{opacity:0.07;}.cls-7{fill:#fff;}</style><linearGradient id="linear-gradient" x1="-139.3" y1="329.41" x2="-139.3" y2="323.39" gradientTransform="translate(-1201.08 3795.83) rotate(180) scale(10.42)" gradientUnits="userSpaceOnUse"><stop offset="0" stop-color="#a1aab3"/><stop offset="1" stop-color="#8f979e"/></linearGradient><linearGradient id="linear-gradient-2" x1="-126.33" y1="357.09" x2="-96.3" y2="331.75" gradientTransform="matrix(10.42, 0, 0, -10.42, 1403.08, 3795.83)" xlink:href="#linear-gradient"/><radialGradient id="radial-gradient" cx="-105.14" cy="267.85" r="83.03" gradientTransform="matrix(8.43, 0, 0, -7.49, 1380.73, 2524.85)" gradientUnits="userSpaceOnUse"><stop offset="0.32" stop-color="#23d9d6"/><stop offset="0.43" stop-color="#23d4d7"/><stop offset="0.54" stop-color="#21c7dc"/><stop offset="0.66" stop-color="#1fb0e2"/><stop offset="0.79" stop-color="#1c91ec"/><stop offset="0.92" stop-color="#1969f8"/><stop offset="0.94" stop-color="#1860fb"/></radialGradient><linearGradient id="linear-gradient-3" x1="-110.7" y1="330.41" x2="-110.7" y2="325.39" gradientTransform="matrix(10.42, 0, 0, -10.42, 1403.08, 3795.83)" gradientUnits="userSpaceOnUse"><stop offset="0" stop-color="#484b4f"/><stop offset="0.03" stop-color="#565b61"/><stop offset="0.07" stop-color="#626a72"/><stop offset="0.11" stop-color="#6b757d"/><stop offset="0.18" stop-color="#717b84"/><stop offset="0.37" stop-color="#727d86"/></linearGradient></defs><path class="cls-1" d="M145.83,395.83V364.58H354.17v31.25l135.41,3.49v17.35a10.41,10.41,0,0,1-10.41,10.41H20.83a10.41,10.41,0,0,1-10.41-10.41V401.89Z" transform="translate(-10.41 -72.92)"/><path class="cls-2" d="M437.5,354.17H62.5a20.83,20.83,0,0,1-20.83-20.84V93.75A20.82,20.82,0,0,1,62.5,72.92h375a20.82,20.82,0,0,1,20.83,20.83V333.33A20.83,20.83,0,0,1,437.5,354.17Z" transform="translate(-10.41 -72.92)"/><rect class="cls-3" x="52.09" y="20.83" width="375" height="239.58"/><path class="cls-4" d="M488.64,399.32,458.77,362a20.8,20.8,0,0,0-16.26-7.82h-385A20.82,20.82,0,0,0,41.22,362L11.35,399.32a4.27,4.27,0,0,0,3.34,6.93H170.58a10.42,10.42,0,0,0,9.36-5.83l4.49-9.17a10.4,10.4,0,0,1,9.35-5.83H306.21a10.4,10.4,0,0,1,9.35,5.83l4.49,9.17a10.42,10.42,0,0,0,9.36,5.83h155.9A4.26,4.26,0,0,0,488.64,399.32Z" transform="translate(-10.41 -72.92)"/><path class="cls-5" d="M250,146.29v52.08A15.63,15.63,0,0,0,265.63,214h52.08a15.63,15.63,0,0,0,15.62-15.63V146.29a15.63,15.63,0,0,0-15.62-15.62H265.63A15.63,15.63,0,0,0,250,146.29Z" transform="translate(-10.41 -72.92)"/><path class="cls-6" d="M317.71,208.79H265.63a10.41,10.41,0,0,1-10.42-10.42V146.29a10.42,10.42,0,0,1,10.42-10.42h52.08a10.43,10.43,0,0,1,10.42,10.42v52.08A10.42,10.42,0,0,1,317.71,208.79Z" transform="translate(-10.41 -72.92)"/><path class="cls-5" d="M166.67,146.29v52.08A15.63,15.63,0,0,0,182.29,214h52.08A15.63,15.63,0,0,0,250,198.37V146.29a15.63,15.63,0,0,0-15.63-15.62H182.29A15.63,15.63,0,0,0,166.67,146.29Z" transform="translate(-10.41 -72.92)"/><path class="cls-6" d="M234.37,208.79H182.29a10.42,10.42,0,0,1-10.42-10.42V146.29a10.43,10.43,0,0,1,10.42-10.42h52.08a10.42,10.42,0,0,1,10.42,10.42v52.08A10.41,10.41,0,0,1,234.37,208.79Z" transform="translate(-10.41 -72.92)"/><path class="cls-5" d="M166.67,229.63v52.08a15.63,15.63,0,0,0,15.62,15.62h52.08A15.63,15.63,0,0,0,250,281.71V229.63A15.63,15.63,0,0,0,234.37,214H182.29A15.63,15.63,0,0,0,166.67,229.63Z" transform="translate(-10.41 -72.92)"/><path class="cls-6" d="M234.37,292.13H182.29a10.43,10.43,0,0,1-10.42-10.42V229.63a10.42,10.42,0,0,1,10.42-10.42h52.08a10.41,10.41,0,0,1,10.42,10.42v52.08A10.42,10.42,0,0,1,234.37,292.13Z" transform="translate(-10.41 -72.92)"/><path class="cls-5" d="M250,229.63v52.08a15.63,15.63,0,0,0,15.63,15.62h52.08a15.63,15.63,0,0,0,15.62-15.62V229.63A15.63,15.63,0,0,0,317.71,214H265.63A15.63,15.63,0,0,0,250,229.63Z" transform="translate(-10.41 -72.92)"/><path class="cls-6" d="M317.71,292.13H265.63a10.42,10.42,0,0,1-10.42-10.42V229.63a10.41,10.41,0,0,1,10.42-10.42h52.08a10.42,10.42,0,0,1,10.42,10.42v52.08A10.43,10.43,0,0,1,317.71,292.13Z" transform="translate(-10.41 -72.92)"/><path class="cls-7" d="M234.37,203.58H182.29a5.21,5.21,0,0,1-5.21-5.21V146.29a5.22,5.22,0,0,1,5.21-5.21h52.08a5.21,5.21,0,0,1,5.21,5.21v52.08A5.21,5.21,0,0,1,234.37,203.58Z" transform="translate(-10.41 -72.92)"/><path class="cls-7" d="M234.37,286.92H182.29a5.22,5.22,0,0,1-5.21-5.21V229.63a5.21,5.21,0,0,1,5.21-5.21h52.08a5.21,5.21,0,0,1,5.21,5.21v52.08A5.21,5.21,0,0,1,234.37,286.92Z" transform="translate(-10.41 -72.92)"/><path class="cls-7" d="M317.71,286.92H265.63a5.21,5.21,0,0,1-5.21-5.21V229.63a5.21,5.21,0,0,1,5.21-5.21h52.08a5.21,5.21,0,0,1,5.21,5.21v52.08A5.22,5.22,0,0,1,317.71,286.92Z" transform="translate(-10.41 -72.92)"/><path class="cls-7" d="M317.71,203.58H265.63a5.21,5.21,0,0,1-5.21-5.21V146.29a5.21,5.21,0,0,1,5.21-5.21h52.08a5.22,5.22,0,0,1,5.21,5.21v52.08A5.21,5.21,0,0,1,317.71,203.58Z" transform="translate(-10.41 -72.92)"/></svg>