<svg id="Layer_1" data-name="Layer 1" xmlns="http://www.w3.org/2000/svg" xmlns:xlink="http://www.w3.org/1999/xlink" viewBox="0 0 500.08 375"><defs><style>.cls-1{fill:url(#linear-gradient);}.cls-2{fill:url(#linear-gradient-2);}.cls-3{fill:url(#linear-gradient-3);}.cls-4{fill:url(#radial-gradient);}.cls-5{isolation:isolate;opacity:0.05;}.cls-6{fill:#fff;}</style><linearGradient id="linear-gradient" x1="-127.5" y1="842.42" x2="-95.22" y2="869.65" gradientTransform="translate(1403.08 -8704.17) scale(10.42)" gradientUnits="userSpaceOnUse"><stop offset="0" stop-color="#a1aab3"/><stop offset="1" stop-color="#8f979e"/></linearGradient><linearGradient id="linear-gradient-2" x1="-110.7" y1="871.59" x2="-110.7" y2="877.61" xlink:href="#linear-gradient"/><linearGradient id="linear-gradient-3" x1="-110.7" y1="871.59" x2="-110.7" y2="875.61" gradientTransform="translate(1403.08 -8704.17) scale(10.42)" gradientUnits="userSpaceOnUse"><stop offset="0" stop-color="#484b4f"/><stop offset="0.03" stop-color="#565b61"/><stop offset="0.07" stop-color="#626a72"/><stop offset="0.11" stop-color="#6b757d"/><stop offset="0.18" stop-color="#717b84"/><stop offset="0.37" stop-color="#727d86"/></linearGradient><radialGradient id="radial-gradient" cx="-91.74" cy="115.95" r="34.55" gradientTransform="matrix(10.42, 0, 0, -11.28, 1403.08, 1664.76)" gradientUnits="userSpaceOnUse"><stop offset="0" stop-color="#9e6fd9"/><stop offset="0.17" stop-color="#aa73c7"/><stop offset="0.52" stop-color="#ca7f97"/><stop offset="1" stop-color="#fc914d"/></radialGradient></defs><path class="cls-1" d="M447.92,375H52.08a20.9,20.9,0,0,1-20.83-20.83V83.33A20.9,20.9,0,0,1,52.08,62.5H447.92a20.9,20.9,0,0,1,20.83,20.83V354.17A20.9,20.9,0,0,1,447.92,375Z" transform="translate(0.04 -62.5)"/><path class="cls-2" d="M343.75,416.67V375H156.25v41.67L0,413.54v13.54c0,6.25,4.17,10.42,10.42,10.42H489.58c6.25,0,10.42-4.17,10.42-10.42V413.54Z" transform="translate(0.04 -62.5)"/><path class="cls-3" d="M499,411.46l-30.21-30.21A20.56,20.56,0,0,0,454.17,375H45.83a20.56,20.56,0,0,0-14.58,6.25L1,411.46c-2.08,2.08-1,5.21,2.09,5.21H181.25q6.25,0,9.37-6.25l4.17-9.38c2.09-3.12,5.21-6.25,9.38-6.25h91.66q6.26,0,9.38,6.25l4.16,9.38c2.09,3.12,5.21,6.25,9.38,6.25H496.87C500,416.67,501,413.54,499,411.46Z" transform="translate(0.04 -62.5)"/><path class="cls-4" d="M447.92,83.33H52.08V354.17H447.92Z" transform="translate(0.04 -62.5)"/><path class="cls-5" d="M273.83,288.21A29.36,29.36,0,0,1,261,285.14a15.62,15.62,0,0,0-7.47-1.85,15.19,15.19,0,0,0-7.6,1.84,28.57,28.57,0,0,1-12.58,3.08c-20.68,0-45.84-34.69-45.84-62.91,0-34.05,24.55-49.37,42-49.37a35.41,35.41,0,0,1,10.35,1.64,33.4,33.4,0,0,1,8.78-16c6.64-6.89,16.91-11.7,26.19-12.23l9.31-.54,1.57,9.16a29.42,29.42,0,0,1-3.16,18.46c10.4,2.46,22.95,10,28.51,19.4l6.9,11.69-13.09,3.63c-6.07,1.7-9.38,6-9.32,12,.06,5.17,2.93,11.43,9.1,13l12,3.06-5.07,11.3A93.63,93.63,0,0,1,303,266.25c-4.64,7.08-14.3,21.83-29.14,21.94h0Z" transform="translate(0.04 -62.5)"/><path class="cls-5" d="M233.14,283c-16.3,0-40.42-30.4-40.42-57.7,0-30.46,21.51-44.16,36.78-44.16,5.84,0,10.69,2,15,3.67l.08,0c-.6-6.63,2.22-13.84,7.83-19.7a36.8,36.8,0,0,1,22.73-10.64l4.65-.27.79,4.58c1.26,7.36-1.45,15.39-7.42,22h0c.86-.07,1.77-.11,2.7-.11,9.39,0,24.86,7.74,30.73,17.71l3.45,5.84-6.54,1.82c-8.32,2.32-13.23,8.69-13.14,17.07.09,7.09,4.19,15.75,13,18l6,1.52-2.53,5.64a88.58,88.58,0,0,1-8.17,15.09c-4.47,6.81-12.8,19.5-24.83,19.58a24.32,24.32,0,0,1-10.72-2.63,21.54,21.54,0,0,0-19.33,0A23.29,23.29,0,0,1,233.34,283h-.2Z" transform="translate(0.04 -62.5)"/><path class="cls-6" d="M275.43,159.71a31.45,31.45,0,0,0-19.27,9C252,173.13,248.65,179.66,250,186c7.41.2,14.83-3.7,19.27-8.61C273.43,172.75,276.57,166.31,275.43,159.71Zm.4,26.23c-10.67,0-15.14,6.56-22.55,6.56-7.61,0-14.57-6.16-23.78-6.16-12.53,0-31.58,11.61-31.58,39,0,24.89,22.54,52.49,35.26,52.49,7.73.08,9.6-4.86,20.1-4.92s12.76,5,20.51,4.92c8.72-.06,15.53-9.63,20.51-17.23a84.83,84.83,0,0,0,7.78-14.36c-20.51-5.2-24.59-38.27,0-45.12C297.43,193.2,283.9,185.94,275.83,185.94Z" transform="translate(0.04 -62.5)"/></svg>