<svg id="Layer_1" data-name="Layer 1" xmlns="http://www.w3.org/2000/svg" xmlns:xlink="http://www.w3.org/1999/xlink" viewBox="0 0 395.83 364.58"><defs><style>.cls-1{fill:url(#linear-gradient);}.cls-2{fill:url(#radial-gradient);}.cls-3{fill:url(#linear-gradient-2);}.cls-4,.cls-5{isolation:isolate;}.cls-4{opacity:0.05;}.cls-5{opacity:0.07;}.cls-6{fill:#fff;}</style><linearGradient id="linear-gradient" x1="-126.03" y1="356.34" x2="-96.57" y2="331.48" gradientTransform="matrix(10.42, 0, 0, -10.42, 1403.08, 3795.83)" gradientUnits="userSpaceOnUse"><stop offset="0" stop-color="#a1aab3"/><stop offset="1" stop-color="#8f979e"/></linearGradient><radialGradient id="radial-gradient" cx="21.19" cy="238.35" r="86.25" gradientTransform="matrix(8.43, 0, 0, -7.49, 259.69, 2325.64)" gradientUnits="userSpaceOnUse"><stop offset="0.32" stop-color="#23d9d6"/><stop offset="0.43" stop-color="#23d4d7"/><stop offset="0.54" stop-color="#21c7dc"/><stop offset="0.66" stop-color="#1fb0e2"/><stop offset="0.79" stop-color="#1c91ec"/><stop offset="0.92" stop-color="#1969f8"/><stop offset="0.94" stop-color="#1860fb"/></radialGradient><linearGradient id="linear-gradient-2" x1="-110.7" y1="329.41" x2="-110.7" y2="322.39" gradientTransform="matrix(10.42, 0, 0, -10.42, 1403.08, 3795.83)" gradientUnits="userSpaceOnUse"><stop offset="0" stop-color="#484b4f"/><stop offset="0.23" stop-color="#656d75"/><stop offset="0.37" stop-color="#727d86"/></linearGradient></defs><path class="cls-1" d="M427.08,364.58H72.92a20.83,20.83,0,0,1-20.84-20.83v-250A20.83,20.83,0,0,1,72.92,72.92H427.08a20.83,20.83,0,0,1,20.84,20.83v250A20.83,20.83,0,0,1,427.08,364.58Z" transform="translate(-52.08 -72.92)"/><rect class="cls-2" x="20.83" y="20.83" width="354.17" height="250"/><path class="cls-3" d="M343.75,395.83H291.67V364.58H208.33v31.25H156.25a10.43,10.43,0,0,0-10.42,10.42v20.83a10.43,10.43,0,0,0,10.42,10.42h187.5a10.43,10.43,0,0,0,10.42-10.42V406.25A10.43,10.43,0,0,0,343.75,395.83Z" transform="translate(-52.08 -72.92)"/><path class="cls-4" d="M250,151v52.09a15.63,15.63,0,0,0,15.63,15.62h52.08a15.63,15.63,0,0,0,15.62-15.62V151a15.63,15.63,0,0,0-15.62-15.62H265.63A15.63,15.63,0,0,0,250,151Z" transform="translate(-52.08 -72.92)"/><path class="cls-5" d="M317.71,213.54H265.63a10.42,10.42,0,0,1-10.42-10.41V151a10.42,10.42,0,0,1,10.42-10.41h52.08A10.42,10.42,0,0,1,328.13,151v52.09A10.42,10.42,0,0,1,317.71,213.54Z" transform="translate(-52.08 -72.92)"/><path class="cls-4" d="M166.67,151v52.09a15.63,15.63,0,0,0,15.62,15.62h52.09A15.63,15.63,0,0,0,250,203.13V151a15.63,15.63,0,0,0-15.62-15.62H182.29A15.63,15.63,0,0,0,166.67,151Z" transform="translate(-52.08 -72.92)"/><path class="cls-5" d="M234.38,213.54H182.29a10.41,10.41,0,0,1-10.41-10.41V151a10.41,10.41,0,0,1,10.41-10.41h52.09A10.41,10.41,0,0,1,244.79,151v52.09A10.41,10.41,0,0,1,234.38,213.54Z" transform="translate(-52.08 -72.92)"/><path class="cls-4" d="M166.67,234.38v52.08a15.63,15.63,0,0,0,15.62,15.62h52.09A15.63,15.63,0,0,0,250,286.46V234.38a15.63,15.63,0,0,0-15.62-15.63H182.29A15.63,15.63,0,0,0,166.67,234.38Z" transform="translate(-52.08 -72.92)"/><path class="cls-5" d="M234.38,296.88H182.29a10.42,10.42,0,0,1-10.41-10.42V234.38A10.42,10.42,0,0,1,182.29,224h52.09a10.42,10.42,0,0,1,10.41,10.42v52.08A10.42,10.42,0,0,1,234.38,296.88Z" transform="translate(-52.08 -72.92)"/><path class="cls-4" d="M250,234.38v52.08a15.63,15.63,0,0,0,15.63,15.62h52.08a15.63,15.63,0,0,0,15.62-15.62V234.38a15.63,15.63,0,0,0-15.62-15.63H265.63A15.63,15.63,0,0,0,250,234.38Z" transform="translate(-52.08 -72.92)"/><path class="cls-5" d="M317.71,296.88H265.63a10.43,10.43,0,0,1-10.42-10.42V234.38A10.43,10.43,0,0,1,265.63,224h52.08a10.43,10.43,0,0,1,10.42,10.42v52.08A10.43,10.43,0,0,1,317.71,296.88Z" transform="translate(-52.08 -72.92)"/><path class="cls-6" d="M234.38,208.33H182.29a5.21,5.21,0,0,1-5.21-5.2V151a5.22,5.22,0,0,1,5.21-5.21h52.09a5.21,5.21,0,0,1,5.2,5.21v52.09A5.2,5.2,0,0,1,234.38,208.33Z" transform="translate(-52.08 -72.92)"/><path class="cls-6" d="M234.38,291.67H182.29a5.22,5.22,0,0,1-5.21-5.21V234.38a5.21,5.21,0,0,1,5.21-5.21h52.09a5.2,5.2,0,0,1,5.2,5.21v52.08A5.21,5.21,0,0,1,234.38,291.67Z" transform="translate(-52.08 -72.92)"/><path class="cls-6" d="M317.71,291.67H265.63a5.21,5.21,0,0,1-5.21-5.21V234.38a5.21,5.21,0,0,1,5.21-5.21h52.08a5.21,5.21,0,0,1,5.21,5.21v52.08A5.22,5.22,0,0,1,317.71,291.67Z" transform="translate(-52.08 -72.92)"/><path class="cls-6" d="M317.71,208.33H265.63a5.2,5.2,0,0,1-5.21-5.2V151a5.21,5.21,0,0,1,5.21-5.21h52.08a5.22,5.22,0,0,1,5.21,5.21v52.09A5.21,5.21,0,0,1,317.71,208.33Z" transform="translate(-52.08 -72.92)"/></svg>